<?xml version="1.0" encoding="utf-8"?>
<!-- Generator: Adobe Illustrator 25.3.1, SVG Export Plug-In . SVG Version: 6.00 Build 0)  -->
<svg version="1.1" id="Layer_1" xmlns="http://www.w3.org/2000/svg" xmlns:xlink="http://www.w3.org/1999/xlink" x="0px" y="0px"
	 viewBox="0 0 100 100" style="enable-background:new 0 0 100 100;" xml:space="preserve">
<style type="text/css">
	.st0{fill:#3174C8;}
	.st1{fill:#EA576C;}
	.st2{fill:url(#SVGID_1_);}
</style>
<path class="st0" d="M42.4,35.3L31,23.9l11.4-11.4c1-1,1.5-2.2,1.5-3.5c0-1.3-0.5-2.6-1.5-3.6c-1-1-2.2-1.5-3.5-1.5
	c-1.3,0-2.6,0.5-3.5,1.5L24,16.8L12.6,5.5C11.6,4.5,10.4,4,9,4S6.4,4.5,5.5,5.5S4,7.7,4,9s0.5,2.6,1.5,3.5l11.3,11.4L5.5,35.3
	c-2,1.9-2,5.1,0,7.1c1,1,2.2,1.5,3.5,1.5s2.6-0.5,3.5-1.5L24,31l11.4,11.3c1,1,2.2,1.5,3.5,1.5c1.3,0,2.6-0.5,3.5-1.5
	c1-1,1.5-2.2,1.5-3.5C43.9,37.5,43.3,36.2,42.4,35.3z"/>
<path class="st1" d="M76.1,56c-11,0-19.9,8.9-19.9,19.9s8.9,19.9,19.9,19.9S96,86.9,96,75.9S87.1,56,76.1,56z M76.1,86.3
	c-5.8,0-10.4-4.7-10.4-10.4c0-5.7,4.7-10.4,10.4-10.4c5.8,0,10.4,4.7,10.4,10.4C86.5,81.7,81.8,86.3,76.1,86.3z"/>
<linearGradient id="SVGID_1_" gradientUnits="userSpaceOnUse" x1="50.07" y1="16.7021" x2="50.07" y2="83.3552">
	<stop  offset="0" style="stop-color:#2E3092"/>
	<stop  offset="1" style="stop-color:#EA576C"/>
</linearGradient>
<path class="st2" d="M36.1,70.9h11c2.8,0,5,2.2,5,5v0c0,2.8-2.2,5-5,5H26c-5.2,0-7.7-6.2-4.1-9.9L64,28.9H52.9c-2.8,0-5-2.2-5-5v0
	c0-2.8,2.2-5,5-5h21.2c5.2,0,7.7,6.2,4.1,9.9L36.1,70.9z"/>
</svg>
