<?xml version="1.0" encoding="utf-8"?>
<!-- Generator: Adobe Illustrator 25.3.1, SVG Export Plug-In . SVG Version: 6.00 Build 0)  -->
<svg version="1.1" id="Layer_1" xmlns="http://www.w3.org/2000/svg" xmlns:xlink="http://www.w3.org/1999/xlink" x="0px" y="0px"
	 viewBox="0 0 100 100" style="enable-background:new 0 0 100 100;" xml:space="preserve">
<style type="text/css">
	.st0{fill:url(#SVGID_1_);}
</style>
<linearGradient id="SVGID_1_" gradientUnits="userSpaceOnUse" x1="35.2048" y1="39.4476" x2="92.3963" y2="65.3199">
	<stop  offset="0" style="stop-color:#5B57A5"/>
	<stop  offset="0.5" style="stop-color:#2E3092"/>
	<stop  offset="1" style="stop-color:#474374"/>
</linearGradient>
<path class="st0" d="M82.6,50c0,18.8-15.8,33.8-34.9,32.5c-16.1-1.1-29.1-14.1-30.2-30.2c-1.3-19,13.7-34.9,32.5-34.9
	c0.1,0,0.2,0,0.2,0L48.8,16c-1.8-1.8-1.8-4.8,0-6.6C49.7,8.4,50.9,8,52.1,8c1.2,0,2.4,0.5,3.3,1.4l8,8l3.3,3.3
	c1.8,1.8,1.8,4.8,0,6.7l-3.3,3.3l-8,8c-1.8,1.8-4.8,1.8-6.6,0c-1.8-1.8-1.8-4.8,0-6.7l1.6-1.6c-0.1,0-0.3,0-0.4,0
	c-10.8,0-19.6,8.8-19.6,19.6c0,10.8,8.8,19.6,19.6,19.6c10.8,0,19.6-8.8,19.6-19.6c0-1.9-0.3-3.7-0.8-5.4c-0.8-2.8,0.4-5.8,3-7.3
	l0,0c3.6-2.1,8.3-0.3,9.5,3.8C82.1,43.9,82.6,46.9,82.6,50z"/>
</svg>
