<?xml version="1.0" encoding="utf-8"?>
<!-- Generator: Adobe Illustrator 25.3.1, SVG Export Plug-In . SVG Version: 6.00 Build 0)  -->
<svg version="1.1" id="Layer_1" xmlns="http://www.w3.org/2000/svg" xmlns:xlink="http://www.w3.org/1999/xlink" x="0px" y="0px"
	 viewBox="0 0 100 100" style="enable-background:new 0 0 100 100;" xml:space="preserve">
<style type="text/css">
	.st0{fill:url(#SVGID_1_);}
</style>
<linearGradient id="SVGID_1_" gradientUnits="userSpaceOnUse" x1="44.9242" y1="11.1594" x2="62.5579" y2="80.2242">
	<stop  offset="0" style="stop-color:#D40053"/>
	<stop  offset="1" style="stop-color:#BF00A0"/>
</linearGradient>
<path class="st0" d="M87.1,60.4c-1.1,3.7-3.2,7.1-6,10.1l0,0c-5.4,4.6-13.7,8.9-21.5,10.4c-7.1,1.3-16.4,0.3-24.9-1.8
	c3.3-0.4,6.5-0.9,9.4-1.4c12.4-2.3,26.1-12,27.5-18.3c0.9-1.7,1.4-3.6,1.5-5.5c0-0.8,0-1.6-0.1-2.4C71.9,42,61.1,34.7,48,34.7h-9
	l1.5,1.2c2.6,2,2.2,5.3-1.2,6.8c-2.4,1-5.5,0.6-7.4-0.7l-9.8-7.2L22,34.6l-4.2-3c-2.3-1.8-2.3-4.5,0-6.2l4.2-3l0.3-0.2l9.7-7.1
	c1.2-0.8,2.6-1.4,4.2-1.4c1.6,0,3.1,0.4,4.2,1.4c2.2,1.7,2.2,4.4,0,6.1l-1.5,1h6.2c23.1,0,42.5,13.3,43,30.3
	C88.3,55.1,87.9,57.8,87.1,60.4z"/>
</svg>
